<svg width="46" height="47" viewBox="0 0 46 47" fill="none" xmlns="http://www.w3.org/2000/svg">
<rect y="0.74292" width="46" height="46" rx="6" fill="#262626"/>
<path fill-rule="evenodd" clip-rule="evenodd" d="M10.25 16.3054C10.25 15.7186 10.7257 15.2429 11.3125 15.2429H34.6875C35.2743 15.2429 35.75 15.7186 35.75 16.3054C35.75 16.8922 35.2743 17.3679 34.6875 17.3679H11.3125C10.7257 17.3679 10.25 16.8922 10.25 16.3054ZM10.25 23.7429C10.25 23.1561 10.7257 22.6804 11.3125 22.6804H34.6875C35.2743 22.6804 35.75 23.1561 35.75 23.7429C35.75 24.3297 35.2743 24.8054 34.6875 24.8054H11.3125C10.7257 24.8054 10.25 24.3297 10.25 23.7429ZM21.9375 31.1804C21.9375 30.5936 22.4132 30.1179 23 30.1179H34.6875C35.2743 30.1179 35.75 30.5936 35.75 31.1804C35.75 31.7672 35.2743 32.2429 34.6875 32.2429H23C22.4132 32.2429 21.9375 31.7672 21.9375 31.1804Z" fill="#D0D0D0"/>
</svg>
